<?xml version="1.0" standalone="no"?>
<!DOCTYPE svg PUBLIC "-//W3C//DTD SVG 20010904//EN"
 "http://www.w3.org/TR/2001/REC-SVG-20010904/DTD/svg10.dtd">
<svg version="1.0" xmlns="http://www.w3.org/2000/svg"
 width="300.000000pt" height="306.000000pt" viewBox="0 0 300.000000 306.000000"
 preserveAspectRatio="xMidYMid meet">
<metadata>
Created by potrace 1.10, written by Peter Selinger 2001-2011
</metadata>
<g transform="translate(0.000000,306.000000) scale(0.100000,-0.100000)"
fill="#000000" stroke="none">
<path d="M1625 2675 c-33 -18 -77 -37 -97 -40 -34 -6 -39 -5 -47 17 -5 13 -16
30 -25 37 -24 20 -60 -8 -81 -64 -10 -25 -22 -45 -28 -45 -5 0 -29 18 -53 40
-24 22 -50 40 -57 40 -25 0 -67 -68 -67 -109 0 -11 -7 -22 -16 -25 -26 -10
-95 -7 -131 6 -29 11 -35 10 -48 -8 -15 -20 -19 -86 -6 -119 11 -27 -5 -45
-40 -45 -18 0 -41 -11 -61 -29 -29 -26 -32 -32 -21 -50 11 -18 9 -25 -16 -53
-49 -57 -53 -72 -27 -97 13 -12 27 -21 32 -20 31 5 37 -2 16 -23 -32 -35 -44
-74 -26 -88 19 -17 18 -28 -8 -78 l-23 -43 24 -20 c13 -10 30 -19 38 -19 10 0
12 -6 8 -19 -4 -13 1 -27 16 -42 17 -17 29 -20 61 -16 57 8 66 1 74 -49 7 -46
36 -94 59 -94 7 0 19 7 26 16 12 15 15 14 31 -6 10 -12 18 -30 18 -39 0 -22
45 -65 58 -57 13 8 72 -60 72 -84 0 -25 -44 -58 -89 -66 -93 -15 -137 -34
-176 -75 -22 -22 -62 -56 -90 -74 -84 -54 -93 -68 -151 -231 -8 -22 -30 -57
-49 -77 -39 -41 -43 -53 -49 -157 -2 -41 -12 -102 -21 -135 -21 -74 -15 -166
12 -204 11 -14 44 -39 74 -56 42 -23 66 -29 110 -29 91 1 145 45 164 131 7 37
38 63 72 63 18 0 23 -6 23 -28 0 -15 7 -37 15 -50 23 -31 51 -10 64 48 13 58
12 511 -1 527 -14 17 11 93 31 94 74 3 145 -2 157 -12 7 -6 28 -36 45 -66 37
-65 69 -89 97 -74 26 14 85 95 106 146 20 48 44 75 65 75 9 0 42 -16 73 -35
54 -34 56 -37 46 -61 -15 -31 5 -70 45 -91 l29 -15 -20 -21 c-23 -24 -37 -95
-47 -242 -10 -133 16 -255 54 -255 19 0 40 30 41 56 0 12 7 25 16 28 25 10 50
-10 68 -54 18 -45 78 -94 134 -110 28 -7 48 -5 96 10 82 28 104 44 127 96 25
61 24 86 -10 180 -16 43 -32 106 -36 139 -8 70 -16 86 -61 138 -19 20 -34 45
-34 54 0 9 -10 46 -22 82 -24 75 -65 125 -123 152 -22 10 -51 32 -63 48 -27
36 -72 61 -165 90 -87 26 -103 36 -110 61 -7 27 24 60 56 60 29 0 57 29 57 58
0 27 47 82 71 82 28 0 107 87 115 126 3 18 3 38 -1 43 -14 24 6 49 44 55 21 3
46 15 56 26 18 20 18 21 -3 50 -27 36 -27 40 -2 40 35 0 42 33 16 71 l-24 34
44 47 c62 66 57 108 -14 108 -35 0 -92 27 -92 43 0 6 9 24 20 42 11 18 23 52
26 76 5 36 2 47 -14 62 -17 15 -24 17 -42 7 -19 -10 -26 -8 -49 14 -15 14 -31
26 -35 26 -4 0 -22 11 -40 25 -20 15 -46 25 -67 25 -28 0 -37 6 -52 31 -9 17
-26 33 -37 36 -11 3 -20 11 -20 17 0 12 -41 56 -51 56 -2 -1 -31 -16 -64 -35z
m81 -22 c-4 -16 -17 -49 -30 -75 l-22 -47 26 14 c14 7 38 25 53 41 37 36 47
22 20 -28 -19 -34 -20 -39 -5 -32 9 4 47 10 85 12 52 3 67 1 67 -10 0 -8 -5
-19 -12 -26 -9 -9 -3 -12 28 -12 62 0 75 -15 28 -35 -35 -15 -37 -18 -19 -25
25 -11 83 -2 113 17 13 8 25 13 27 11 19 -19 -6 -96 -45 -138 l-28 -30 21 -12
c12 -6 35 -22 50 -34 21 -17 41 -24 73 -24 l45 0 -21 -30 c-11 -16 -40 -43
-64 -61 l-44 -31 44 -40 c46 -42 52 -58 14 -38 -11 6 -40 10 -63 8 l-42 -3 44
-47 c24 -27 51 -48 59 -48 11 0 13 -3 6 -10 -5 -5 -38 -13 -72 -16 -55 -6 -60
-9 -52 -25 6 -10 10 -22 10 -28 0 -18 -17 -12 -23 7 -2 9 -8 24 -12 33 -5 14
3 18 54 24 l61 7 -24 19 c-31 24 -71 88 -61 97 4 4 26 7 50 7 51 0 46 12 -18
44 -37 18 -39 21 -16 21 14 0 52 19 84 42 l58 41 -40 12 c-23 7 -63 27 -89 46
-27 19 -51 35 -54 37 -3 2 3 8 12 13 21 12 68 89 68 111 0 14 -5 14 -34 6 -35
-11 -146 -3 -146 11 0 4 19 17 43 29 l42 22 -65 -5 -65 -6 25 23 25 23 -46 3
c-25 2 -65 -3 -87 -11 -23 -8 -42 -12 -42 -10 0 3 10 22 22 42 l21 36 -24 -22
c-27 -25 -87 -49 -96 -39 -3 3 1 14 10 23 13 16 57 106 57 119 0 3 -16 -7 -35
-21 -19 -15 -65 -36 -102 -47 -37 -11 -77 -29 -89 -39 -26 -24 -34 -16 -34 35
-1 32 -3 37 -11 24 -5 -9 -12 -36 -15 -60 -4 -24 -8 -45 -11 -48 -9 -10 -115
55 -135 83 l-22 31 -7 -24 c-4 -14 -7 -51 -8 -82 -1 -32 -3 -58 -6 -58 -4 0
-18 6 -33 14 -15 7 -62 15 -105 18 l-79 3 6 -30 c3 -16 19 -56 35 -87 16 -32
26 -60 21 -63 -5 -3 -11 -1 -15 5 -7 12 -88 12 -125 0 -22 -7 -21 -8 12 -9 20
-1 49 -6 65 -12 l28 -10 -52 -19 c-54 -19 -118 -61 -126 -84 -4 -10 7 -15 38
-19 24 -2 58 -14 76 -25 l32 -20 -39 -21 c-33 -19 -35 -21 -11 -16 29 6 36 -5
12 -25 -7 -6 -28 -37 -46 -68 -17 -31 -39 -65 -47 -75 -18 -21 -25 -21 86 4
29 6 55 9 57 7 3 -2 -17 -28 -42 -58 l-47 -53 59 5 c33 4 67 9 75 12 13 5 14
-4 12 -56 -3 -43 0 -60 7 -53 15 15 16 114 1 159 -16 51 -7 124 24 189 29 61
76 120 76 96 0 -8 -9 -24 -19 -36 -36 -38 -64 -107 -69 -168 -3 -49 0 -71 19
-115 l24 -55 7 45 c3 25 7 76 7 114 1 73 18 146 34 146 5 0 6 -8 2 -17 -26
-66 -29 -123 -10 -200 l19 -78 7 50 c4 28 5 64 2 82 -6 39 10 91 49 161 41 72
45 60 8 -19 -16 -35 -31 -84 -34 -109 -4 -46 11 -107 24 -93 9 10 27 83 35
142 6 49 21 81 36 81 5 0 3 -12 -5 -27 -26 -53 -28 -104 -6 -175 33 -108 36
-100 40 92 1 49 4 59 10 40 4 -14 9 -38 9 -55 1 -16 12 -52 26 -80 20 -41 24
-44 20 -20 -5 33 -7 99 -6 158 1 54 21 46 21 -9 0 -70 27 -149 71 -204 22 -27
41 -50 43 -50 2 0 -1 24 -6 53 -10 65 -8 207 3 207 5 0 9 -28 9 -62 0 -59 3
-66 41 -111 23 -26 44 -46 47 -43 2 3 0 11 -5 18 -27 33 -57 218 -33 203 6 -3
10 -23 10 -45 0 -31 8 -47 45 -87 l45 -48 -24 55 c-30 67 -43 115 -29 107 6
-4 13 -19 16 -34 3 -17 18 -35 36 -46 17 -10 43 -33 57 -52 14 -19 30 -33 34
-30 19 12 -24 138 -66 192 -31 41 -15 44 19 3 25 -29 67 -127 67 -154 0 -8 9
-33 19 -57 l20 -43 7 28 c10 41 -1 138 -21 175 -9 18 -14 35 -11 38 6 6 32
-44 51 -100 11 -33 12 -52 5 -71 -6 -17 -6 -26 0 -26 6 0 10 10 11 23 0 21 1
21 8 2 7 -17 10 -13 20 23 15 53 8 89 -29 165 -31 62 -25 78 9 24 30 -48 51
-138 42 -179 -13 -56 -30 -80 -52 -73 -11 4 -19 2 -19 -5 0 -7 12 -10 28 -8
26 3 27 0 33 -47 5 -44 6 -46 9 -15 1 19 1 45 0 58 -2 29 7 28 37 -5 l25 -28
-6 27 c-3 15 -2 30 4 33 6 4 9 -14 9 -45 -1 -27 -4 -50 -8 -50 -3 0 -13 15
-21 33 l-14 32 -7 -47 c-9 -61 -18 -76 -33 -56 -10 14 -18 10 -55 -25 -38 -35
-45 -48 -49 -89 -5 -55 -12 -59 -37 -21 -15 22 -15 25 -2 20 11 -4 18 1 22 14
12 36 -3 32 -44 -12 -45 -47 -55 -66 -16 -29 14 13 25 19 25 12 0 -12 -47 -52
-62 -52 -5 0 -6 6 -2 13 4 6 -1 4 -11 -5 -15 -14 -16 -20 -5 -33 7 -9 10 -27
6 -45 -4 -23 -2 -30 10 -30 8 0 25 -6 37 -14 12 -8 60 -27 106 -41 101 -32
124 -46 152 -91 14 -23 28 -34 44 -34 12 0 41 -15 63 -32 35 -29 43 -45 73
-138 26 -83 39 -111 66 -135 29 -27 34 -40 48 -125 9 -52 25 -115 36 -139 41
-94 15 -176 -69 -213 -105 -47 -194 -13 -241 93 -26 59 -26 59 -69 59 -41 0
-44 2 -63 43 l-20 42 6 -60 c3 -33 9 -75 12 -92 3 -18 1 -33 -4 -33 -15 0 -33
156 -27 230 7 93 25 234 30 239 13 14 16 -17 5 -76 -17 -99 -16 -182 3 -226
19 -44 29 -46 53 -11 34 48 62 79 63 68 0 -6 -9 -23 -20 -37 -17 -21 -18 -27
-5 -37 7 -6 26 -43 41 -81 28 -76 67 -112 132 -125 45 -9 114 19 153 63 27 32
31 41 26 77 -3 23 -15 62 -26 87 -12 26 -26 81 -33 122 -10 68 -13 74 -26 59
-13 -16 -13 -16 -8 1 3 9 8 23 11 30 3 7 -4 22 -16 33 l-22 19 7 -40 c4 -22 9
-47 12 -56 8 -29 -150 -125 -190 -115 -30 8 -76 53 -76 75 0 17 33 68 52 82 5
3 -5 15 -21 26 -16 12 -31 33 -35 47 -9 35 -56 84 -85 88 -53 7 -54 68 -1 68
24 0 30 4 28 17 -2 11 6 22 20 28 53 23 -5 30 -80 9 -9 -3 -26 4 -37 15 -25
25 -95 61 -118 61 -12 0 -35 -29 -67 -84 -27 -46 -63 -101 -81 -122 -39 -47
-45 -44 -101 55 -35 62 -43 70 -74 75 -48 7 -278 1 -287 -7 -3 -4 1 -7 10 -7
8 0 17 -6 20 -12 2 -7 17 -13 33 -13 25 0 29 -3 27 -25 -2 -14 -16 -36 -32
-50 -20 -18 -26 -29 -20 -40 4 -8 15 -44 22 -80 l15 -65 1 50 c1 28 6 68 10
90 4 22 6 -84 6 -235 -1 -151 -5 -283 -10 -292 -13 -31 -24 -19 -14 14 5 18 9
55 8 83 0 42 -2 47 -11 28 -7 -15 -29 -27 -75 -39 -36 -10 -67 -22 -68 -28 -2
-6 -9 -36 -15 -67 -12 -63 -38 -85 -112 -95 -51 -7 -131 22 -168 61 -27 29
-37 117 -21 177 7 24 13 53 14 66 2 26 17 30 17 5 0 -10 -7 -43 -15 -73 -15
-55 -12 -117 7 -153 13 -25 107 -70 148 -70 42 0 95 25 109 52 6 10 12 78 14
152 2 76 8 143 15 154 9 16 11 16 12 4 0 -9 27 -45 60 -80 57 -60 62 -63 72
-44 6 11 14 54 16 96 3 60 0 91 -16 140 -12 35 -25 86 -29 113 l-8 49 -30 -37
c-17 -21 -45 -53 -62 -73 -38 -41 -38 -41 -16 -65 9 -10 12 -18 6 -18 -5 0
-18 9 -28 20 -25 27 -35 17 -35 -36 0 -41 2 -44 19 -34 11 5 27 17 36 26 21
21 28 13 16 -17 -5 -13 -10 -18 -10 -10 -1 12 -4 11 -18 -1 -10 -9 -32 -23
-49 -31 -31 -16 -31 -16 -112 40 -45 31 -84 54 -87 51 -3 -3 -6 -31 -7 -62 -1
-32 -6 -60 -12 -63 -15 -10 2 147 19 173 8 12 23 25 33 29 14 4 30 37 57 113
40 114 73 161 129 183 17 7 54 36 81 66 47 50 55 54 124 68 95 20 174 61 167
88 -5 22 2 47 15 47 4 0 6 -6 3 -14 -3 -7 2 -16 10 -19 10 -4 16 -1 16 7 0 15
-34 48 -42 41 -10 -10 -77 76 -84 108 -4 22 -8 26 -15 16 -5 -8 -9 -24 -9 -36
0 -13 -4 -23 -9 -23 -12 0 -31 57 -25 74 3 7 -8 21 -23 31 -15 10 -34 27 -42
38 -17 24 -30 8 -32 -38 l-1 -30 -14 33 c-8 18 -15 57 -17 87 -2 60 7 55 -88
40 -17 -3 -42 -2 -56 1 -24 6 -23 8 27 51 28 25 49 47 47 49 -2 3 -37 -3 -77
-11 -40 -8 -75 -13 -78 -10 -3 3 4 15 15 28 12 12 40 53 63 91 l41 68 -47 -26
c-25 -14 -51 -26 -57 -26 -16 0 24 40 76 75 l48 32 -28 12 c-15 6 -49 12 -75
13 -27 1 -48 6 -48 10 0 17 73 88 111 106 44 22 38 35 -16 31 -19 -2 -35 1
-36 6 -2 16 93 47 129 43 17 -2 32 -3 32 -2 0 1 -9 23 -20 49 -11 26 -20 66
-20 90 l0 44 28 -15 c15 -8 55 -14 90 -14 35 0 71 -4 80 -9 15 -8 17 -2 18 48
0 31 6 69 13 85 l12 30 31 -38 c25 -31 97 -86 112 -86 2 0 6 12 9 28 9 45 46
122 58 122 8 0 10 -13 6 -41 -7 -51 0 -74 18 -59 7 6 44 21 83 34 39 14 88 36
109 50 48 33 57 33 49 -1z m-89 -155 c9 -10 28 -18 43 -18 14 0 31 -5 36 -10
7 -7 24 -6 52 4 l41 15 49 -51 c44 -45 54 -51 101 -56 56 -5 61 -14 31 -52
-31 -39 -24 -55 40 -106 33 -25 57 -50 54 -55 -2 -4 -22 -18 -43 -30 -32 -18
-40 -28 -40 -53 -1 -17 -2 -47 -3 -66 -1 -19 2 -43 7 -54 6 -13 5 -18 -4 -15
-7 3 -23 31 -36 64 -31 75 -68 115 -93 98 -12 -7 -16 -21 -14 -44 1 -18 0 -30
-4 -26 -4 3 -16 2 -26 -4 -17 -9 -26 -6 -52 20 -35 34 -57 39 -76 16 -10 -12
-8 -23 9 -56 27 -52 20 -61 -16 -22 -26 29 -75 50 -98 43 -5 -2 -21 -3 -35 -4
-29 -1 -50 -36 -50 -83 0 -18 -4 -33 -10 -33 -9 0 -23 43 -35 115 -11 67 -47
88 -65 40 -5 -14 -13 -25 -17 -25 -14 0 -35 17 -33 26 2 14 -49 74 -64 74 -7
0 -23 -11 -36 -25 -31 -33 -40 -32 -40 9 0 38 -21 62 -43 49 -45 -26 -103
-134 -114 -210 -5 -39 -7 -41 -26 -32 -10 6 -32 8 -48 5 -37 -7 -36 0 2 58 60
90 55 143 -17 166 -34 11 -35 13 -18 31 9 10 26 21 38 25 40 12 126 75 126 92
0 9 -11 39 -25 66 -13 27 -22 52 -19 57 8 14 77 11 122 -5 35 -13 43 -12 61 0
13 10 21 26 21 44 0 41 12 44 66 15 50 -27 74 -31 90 -16 17 18 129 74 159 80
27 6 30 4 33 -18 2 -15 11 -34 19 -43z m328 -1654 c-16 -30 -17 -39 -5 -74 12
-36 12 -43 -4 -58 -15 -15 -18 -15 -27 -2 -9 14 -5 140 8 204 l5 29 21 -33
c20 -32 20 -33 2 -66z m-852 26 c18 -64 23 -185 8 -194 -5 -4 -24 13 -42 36
-29 35 -34 50 -36 104 -2 50 2 67 18 88 11 14 24 26 28 26 4 0 15 -27 24 -60z
m-271 -126 c40 -27 60 -34 87 -32 l36 3 -3 -120 c-3 -95 -7 -125 -21 -144 -34
-47 -99 -45 -167 5 -39 29 -47 68 -28 149 7 33 13 72 12 85 -4 59 2 90 17 90
9 0 39 -16 67 -36z m1434 -19 c6 -28 19 -67 28 -89 25 -61 21 -85 -24 -126
-34 -32 -47 -37 -87 -37 -41 0 -51 5 -89 42 -24 24 -45 56 -49 76 -4 18 -13
41 -19 51 -17 27 3 49 56 63 25 6 59 20 75 31 83 56 94 55 109 -11z"/>
<path d="M1410 1908 c0 -15 11 -53 25 -84 14 -32 24 -59 22 -60 -8 -8 -61 57
-84 103 l-24 48 5 -80 5 -80 -25 30 c-13 17 -32 51 -41 77 -19 53 -32 46 -33
-17 -1 -39 -1 -40 -18 -19 -9 12 -23 30 -29 40 -21 32 -9 -120 16 -203 21 -69
25 -75 79 -111 31 -22 77 -50 101 -63 24 -13 55 -30 68 -37 22 -13 30 -11 81
20 31 19 77 44 102 57 75 40 96 66 124 156 29 92 36 174 12 142 -12 -16 -16
-14 -50 28 -21 25 -47 50 -58 56 -20 11 -20 10 2 -27 13 -22 30 -47 38 -56 13
-16 13 -18 0 -18 -9 0 -39 20 -66 46 l-51 45 15 -45 c9 -25 20 -48 25 -52 12
-7 12 -34 0 -34 -5 0 -33 23 -62 51 l-52 51 6 -54 c4 -29 9 -64 13 -77 7 -23
7 -23 -20 -6 -34 22 -83 94 -107 154 -15 39 -18 42 -19 19z m-100 -143 c27
-28 52 -32 70 -10 11 13 15 13 33 0 12 -8 32 -15 45 -15 13 0 35 -9 49 -20 41
-32 83 -21 83 23 0 15 5 17 29 12 19 -4 38 -1 53 8 38 25 87 31 94 13 9 -25
-33 -150 -58 -172 -25 -23 -199 -124 -212 -124 -10 0 -159 91 -193 118 -12 9
-33 47 -47 83 -22 60 -23 68 -10 88 20 27 35 27 64 -4z"/>
<path d="M1142 1808 c-1 -27 1 -29 14 -16 8 8 12 22 8 31 -10 27 -21 20 -22
-15z"/>
<path d="M1090 1772 c1 -32 14 -52 65 -92 42 -33 55 -37 55 -16 0 8 -11 17
-24 20 -33 8 -56 33 -56 59 0 13 -9 30 -20 40 -19 16 -20 16 -20 -11z"/>
<path d="M1850 1783 c1 -5 9 -23 19 -42 18 -33 19 -34 30 -13 15 29 14 49 -5
56 -22 8 -44 8 -44 -1z"/>
<path d="M1153 1760 c-16 -25 -8 -44 22 -58 23 -11 24 -10 19 21 -11 64 -20
72 -41 37z"/>
<path d="M1821 1747 c-19 -50 -24 -77 -13 -77 6 0 14 5 17 10 3 6 11 10 17 10
7 0 6 -6 -2 -15 -7 -8 -21 -15 -31 -15 -11 0 -19 -4 -19 -10 0 -15 15 -12 41
9 29 22 36 68 15 97 -14 18 -15 18 -25 -9z"/>
<path d="M1580 1468 c-36 -21 -73 -38 -84 -38 -10 0 -42 13 -71 30 l-52 30 4
-24 c4 -20 14 -26 63 -35 76 -15 190 9 190 40 0 11 5 19 11 19 6 0 9 -7 5 -15
-3 -9 0 -15 9 -15 18 0 19 10 2 30 -11 14 -20 11 -77 -22z"/>
<path d="M1590 1428 c-65 -19 -109 -19 -210 0 l-45 8 3 -58 c4 -53 6 -59 38
-79 19 -12 33 -24 30 -26 -3 -3 -17 2 -31 11 -29 19 -30 15 -6 -38 l17 -38 44
37 c43 36 69 40 123 19 7 -2 17 6 22 18 8 17 18 23 41 22 38 -2 57 26 51 71
-2 17 0 40 4 53 10 27 7 27 -81 0z m-33 -41 c55 14 66 14 74 2 14 -22 11 -39
-8 -45 -10 -3 -30 -12 -44 -20 -15 -8 -44 -13 -66 -12 -21 0 -49 -4 -62 -11
-19 -11 -26 -10 -43 6 -31 28 -40 51 -29 72 10 17 14 17 62 5 45 -12 60 -11
116 3z"/>
<path d="M1282 1375 c-18 -12 -69 -30 -114 -40 -68 -14 -88 -24 -122 -55 l-41
-38 55 1 c69 1 161 -18 176 -38 17 -23 72 -31 80 -11 5 14 9 14 34 -4 30 -21
55 -27 30 -7 -8 7 -16 19 -17 27 -1 8 -9 33 -17 55 -8 22 -15 59 -16 82 0 23
-3 44 -7 46 -5 3 -23 -5 -41 -18z m16 -72 c1 -35 -1 -44 -8 -33 -12 18 -13 80
-2 80 5 0 9 -21 10 -47z m-42 -8 c3 -14 17 -34 30 -44 37 -29 9 -38 -40 -13
-23 11 -58 24 -79 29 -49 10 -46 25 7 39 65 18 75 16 82 -11z"/>
<path d="M1680 1381 c0 -11 4 -22 9 -25 13 -8 1 -46 -14 -46 -7 0 -18 -7 -25
-15 -7 -9 -21 -13 -35 -9 -15 4 -24 0 -28 -10 -5 -13 1 -16 32 -16 29 0 40 5
49 23 l11 22 -2 -25 c-2 -21 3 -25 35 -30 20 -4 43 -12 50 -18 10 -8 32 -5 83
9 66 18 86 19 132 2 13 -4 9 3 -12 27 -33 35 -83 60 -160 79 -27 7 -65 21 -83
32 -41 24 -42 24 -42 0z m192 -89 c17 -17 -75 -37 -102 -22 -19 10 -27 40 -14
52 7 8 104 -18 116 -30z"/>
<path d="M1445 1230 c-16 -11 -26 -20 -22 -20 4 0 3 -9 -3 -20 -8 -15 -7 -28
6 -52 26 -52 68 -118 76 -118 3 0 39 48 78 108 l72 107 -37 3 c-24 2 -43 -2
-55 -13 -11 -10 -25 -15 -32 -12 -8 4 -5 8 10 12 36 12 25 25 -20 25 -26 0
-55 -8 -73 -20z m71 -31 c3 -6 22 -9 40 -7 39 5 44 -10 13 -38 -12 -10 -27
-31 -35 -46 -20 -39 -40 -35 -65 13 -17 34 -19 47 -10 65 11 25 45 32 57 13z"/>
<path d="M1850 1229 c-46 -14 -61 -29 -29 -30 22 0 22 -1 4 -9 -13 -5 7 -8 55
-8 41 0 84 -1 95 -2 11 -1 33 2 49 6 19 4 27 3 23 -3 -4 -6 -24 -14 -44 -17
-21 -4 -51 -12 -66 -18 -28 -11 -29 -13 -23 -67 7 -66 23 -89 18 -26 -3 37 0
46 20 58 32 22 78 32 78 18 0 -6 -7 -11 -15 -11 -9 0 -30 -7 -47 -16 -28 -15
-30 -19 -25 -56 3 -23 13 -48 23 -57 16 -15 16 -15 9 4 -4 11 -8 26 -9 34 -1
16 64 65 73 55 6 -5 -7 -17 -46 -40 -17 -11 -17 -13 -1 -48 10 -20 23 -36 30
-36 16 0 42 39 33 48 -3 4 -10 0 -14 -7 -7 -10 -10 -10 -16 -1 -8 13 13 32 29
27 5 -2 14 -11 20 -20 8 -12 5 -22 -12 -40 -12 -13 -22 -31 -22 -41 0 -26 19
-56 36 -56 8 0 13 -4 9 -9 -6 -11 16 -101 26 -101 12 0 99 71 99 81 0 29 -83
315 -93 318 -6 2 -20 15 -33 27 -33 37 -171 62 -234 43z m240 -94 c15 -16 33
-62 51 -132 33 -127 35 -150 12 -182 -15 -23 -17 -23 -30 -6 -7 11 -13 27 -13
36 0 10 -8 31 -17 48 -17 29 -17 32 1 66 19 35 19 36 -2 63 -38 47 -50 76 -45
105 7 33 13 34 43 2z"/>
<path d="M980 1207 c-76 -30 -107 -63 -131 -138 -12 -35 -27 -77 -34 -94 -26
-60 -46 -140 -35 -143 6 -2 33 -21 60 -43 27 -21 54 -39 60 -39 5 0 10 20 10
45 0 43 -1 45 -24 39 -13 -3 -27 -1 -30 5 -5 7 4 11 22 11 32 0 62 27 62 55 0
15 2 15 16 5 13 -11 19 -9 42 15 l27 28 -25 -8 c-14 -4 -38 -8 -55 -9 -26 -1
-30 3 -31 26 -1 26 19 44 37 32 15 -9 10 -21 -12 -27 -29 -8 -15 -25 15 -20
17 4 28 15 36 36 12 35 9 39 -45 66 -29 15 -34 20 -19 21 28 0 89 -42 88 -61
-1 -8 -5 -23 -9 -34 -5 -15 -1 -14 19 8 19 20 26 39 26 67 0 39 0 39 -47 45
-27 3 -57 10 -68 15 -30 13 40 13 87 0 43 -12 52 -32 38 -80 -9 -30 -8 -32 5
-20 8 8 17 40 21 71 6 53 5 56 -17 62 -13 4 -42 7 -64 7 -22 0 -47 5 -55 10
-11 8 0 11 40 11 49 0 142 4 210 9 23 1 23 2 5 10 -11 5 -15 9 -10 10 21 3
-91 30 -125 29 -19 0 -60 -10 -90 -22z m-78 -124 c-7 -11 -6 -23 1 -34 8 -13
8 -24 -2 -43 -9 -15 -11 -39 -8 -61 7 -42 0 -65 -18 -65 -7 0 -18 -7 -25 -15
-17 -21 -30 -19 -30 5 0 37 72 230 86 230 3 0 1 -8 -4 -17z"/>
<path d="M1113 1098 c-6 -7 -13 -26 -17 -43 l-7 -29 23 19 c40 35 52 65 24 65
-7 0 -18 -6 -23 -12z"/>
<path d="M1850 1087 c0 -17 20 -37 37 -37 7 0 13 11 13 25 0 20 -5 25 -25 25
-14 0 -25 -6 -25 -13z"/>
<path d="M1970 965 c0 -14 22 -45 38 -54 14 -8 18 -5 20 14 1 14 -5 25 -16 29
-9 3 -23 9 -29 12 -7 3 -13 3 -13 -1z"/>
<path d="M746 881 c-17 -19 -15 -41 3 -41 8 0 23 52 17 58 -2 1 -11 -7 -20
-17z"/>
<path d="M2001 846 c-27 -42 -26 -60 1 -86 20 -19 67 -27 80 -14 9 8 -22 118
-35 126 -19 12 -24 10 -46 -26z"/>
<path d="M985 656 c-10 -74 2 -87 32 -37 23 38 23 42 7 66 -9 14 -20 25 -24
25 -5 0 -12 -24 -15 -54z"/>
<path d="M1030 613 c-11 -19 -19 -38 -16 -41 8 -7 96 19 96 29 0 5 -4 9 -8 9
-5 0 -18 9 -29 20 l-21 19 -22 -36z"/>
<path d="M1935 630 c-18 -20 -17 -20 13 -20 34 0 35 1 26 24 -8 21 -17 20 -39
-4z"/>
</g>
</svg>
