<svg version="1.1" id="Layer_1" xmlns="http://www.w3.org/2000/svg" xmlns:xlink="http://www.w3.org/1999/xlink" x="0px" y="0px"
	 width="100%" viewBox="0 0 1589 388" enable-background="new 0 0 1589 388" xml:space="preserve">
<path fill="#010101" opacity="1.000000" stroke="none" 
	d="
M1032.000000,389.000000 
	C688.043396,389.000000 344.586823,389.000000 1.065108,389.000000 
	C1.065108,259.726440 1.065108,130.452850 1.065108,1.089622 
	C530.666687,1.089622 1060.333374,1.089622 1589.964600,1.089622 
	C1589.964600,130.413269 1589.964600,259.706635 1589.964600,389.000000 
	C1404.119385,389.000000 1218.309692,389.000000 1032.000000,389.000000 
M52.982861,202.443466 
	C54.798180,214.935898 55.501766,227.711960 58.605057,239.875793 
	C82.974754,335.396729 178.169235,394.246796 274.598999,373.840393 
	C379.274048,351.689056 442.725006,243.491333 411.331329,140.681778 
	C385.288727,55.396141 301.062317,1.212984 212.598999,12.782315 
	C173.794983,17.857147 139.824081,33.503185 111.406799,60.303562 
	C70.907715,98.498291 51.609222,145.780029 52.982861,202.443466 
M1405.472534,175.475601 
	C1405.472534,177.893036 1405.472534,180.310471 1405.472534,182.971313 
	C1392.480957,182.971313 1380.168213,182.844986 1367.858887,182.996674 
	C1339.001831,183.352280 1318.627197,209.802185 1325.515747,237.864243 
	C1330.832153,259.521393 1350.834473,276.071564 1381.366943,270.471863 
	C1392.124023,268.498993 1400.443604,262.230316 1407.115356,254.400620 
	C1413.279419,258.131897 1412.583130,269.214325 1423.114868,268.492584 
	C1423.114868,231.766068 1423.512573,195.614838 1422.949951,159.478577 
	C1422.660889,140.917953 1412.726440,127.979927 1395.648682,120.669937 
	C1386.281616,116.660385 1376.373047,117.114937 1366.598633,117.854645 
	C1348.297852,119.239616 1335.451904,128.689041 1328.786499,145.776627 
	C1326.757568,150.977982 1326.345215,156.809921 1325.168335,162.469254 
	C1332.126587,163.534805 1337.658203,164.381897 1343.703979,165.307709 
	C1343.703979,163.108475 1343.654297,161.470642 1343.711914,159.836578 
	C1344.204102,145.882538 1353.687134,135.663452 1367.619385,134.437378 
	C1372.246460,134.030197 1376.974487,134.017929 1381.597412,134.452682 
	C1395.359375,135.746948 1404.662720,145.616959 1405.366821,159.490021 
	C1405.619995,164.476715 1405.449707,169.484924 1405.472534,175.475601 
M703.617615,237.500214 
	C703.617615,198.590256 703.617615,159.680313 703.617615,120.717621 
	C697.301758,120.717621 691.717773,120.717621 685.855591,120.717621 
	C685.855591,122.833344 685.855591,124.653450 685.855591,126.473557 
	C685.855530,159.963379 685.887817,193.453247 685.841980,226.943008 
	C685.818787,243.864822 674.976562,254.625961 658.015808,254.733673 
	C656.016479,254.746368 654.017029,254.737274 652.017639,254.736267 
	C632.660217,254.726578 622.385742,244.513138 622.380249,225.239227 
	C622.370789,192.249252 622.377625,159.259277 622.377625,126.269295 
	C622.377625,124.479050 622.377625,122.688805 622.377625,120.662933 
	C616.316467,120.662933 610.749329,120.662933 604.940369,120.662933 
	C604.855286,121.660027 604.727295,122.461212 604.727173,123.262421 
	C604.722046,158.085129 604.539978,192.909836 604.909790,227.728653 
	C604.974976,233.866867 606.386658,240.398041 608.823364,246.035995 
	C622.042603,276.622467 665.685608,279.251190 684.820312,257.072021 
	C685.735779,256.010895 686.660278,254.957596 687.280396,254.245438 
	C693.760864,257.972717 692.794006,269.335632 703.617554,268.435608 
	C703.617554,258.096741 703.617554,248.298477 703.617615,237.500214 
M1064.140991,230.756317 
	C1077.395020,194.141388 1090.648926,157.526459 1104.080566,120.420868 
	C1099.007080,120.420868 1094.685059,120.617012 1090.390991,120.356247 
	C1087.194458,120.162117 1085.868652,121.289017 1084.837524,124.385498 
	C1078.385742,143.759842 1071.653442,163.040741 1065.020874,182.354950 
	C1059.232544,199.210556 1053.453125,216.069214 1047.233887,234.197296 
	C1043.230835,222.659973 1039.640137,212.370590 1036.090088,202.067169 
	C1027.166138,176.167267 1018.293213,150.249573 1009.264771,124.386169 
	C1008.729309,122.852325 1007.095276,120.718880 1005.814697,120.602608 
	C1000.911194,120.157402 995.943298,120.422562 990.498596,120.422562 
	C991.053284,122.236984 991.381226,123.475220 991.807251,124.678726 
	C1006.710510,166.777130 1021.679993,208.852371 1036.406250,251.012527 
	C1037.389038,253.825974 1037.390747,257.578827 1036.404907,260.387970 
	C1029.038452,281.377380 1021.305786,302.238190 1013.696350,323.142395 
	C1013.161560,324.611511 1012.694397,326.105255 1012.095703,327.885132 
	C1016.315430,327.885132 1020.002930,327.610657 1023.630920,327.957825 
	C1027.739868,328.350983 1029.628296,326.946869 1031.061401,322.893524 
	C1041.851685,292.372955 1052.948608,261.960785 1064.140991,230.756317 
M1232.997314,271.369873 
	C1237.494263,271.351532 1242.001465,271.522797 1246.486572,271.283600 
	C1272.990479,269.870300 1291.123901,248.695190 1288.563843,221.947952 
	C1282.906616,221.019150 1277.176514,220.078384 1270.979126,219.060883 
	C1270.979126,222.534073 1271.042480,225.845627 1270.968018,229.154068 
	C1270.675537,242.129761 1261.833008,252.607239 1248.959351,254.152649 
	C1242.416382,254.938095 1235.608154,254.885269 1229.070190,254.043442 
	C1216.938843,252.481369 1208.011230,242.258163 1207.889771,229.972977 
	C1207.655884,206.314209 1207.656128,182.649872 1207.891113,158.991135 
	C1208.013184,146.714508 1216.939453,136.565643 1229.098999,134.930527 
	C1235.313843,134.094803 1241.776367,133.982040 1248.010986,134.640244 
	C1261.651489,136.080322 1270.765381,146.652740 1270.979736,160.369843 
	C1271.028809,163.503677 1270.987061,166.638947 1270.987061,169.957306 
	C1277.194092,168.929947 1282.920410,167.982147 1288.570801,167.046921 
	C1290.628174,144.893021 1278.709961,125.585297 1258.179932,119.843658 
	C1250.047729,117.569298 1241.044556,117.500465 1232.489502,117.818039 
	C1207.425415,118.748436 1190.073242,137.074478 1189.966309,162.057678 
	C1189.873535,183.719269 1189.868530,205.381943 1189.967773,227.043472 
	C1190.081177,251.775375 1207.345459,269.834961 1232.997314,271.369873 
M814.155518,266.730713 
	C831.329102,257.205688 840.188782,240.302887 837.518616,221.873825 
	C831.902039,220.982208 826.220703,220.080307 820.116211,219.111221 
	C820.116211,222.867355 820.191101,226.182907 820.102966,229.494110 
	C819.763184,242.258591 811.030579,252.571732 798.339905,254.120911 
	C791.799133,254.919357 784.991089,254.900482 778.454590,254.067719 
	C766.103027,252.494141 757.114197,242.045990 757.029724,229.648270 
	C756.869568,206.156509 756.862915,182.661972 757.038330,159.170410 
	C757.129028,147.021942 766.080872,136.594421 778.132263,134.965729 
	C784.505615,134.104416 791.142822,133.995193 797.532410,134.704422 
	C810.997314,136.199005 819.864868,146.591080 820.123962,160.173309 
	C820.183838,163.314545 820.132751,166.457901 820.132751,169.966614 
	C826.393066,168.915787 832.182312,167.944046 837.805969,167.000076 
	C840.035339,141.121597 823.684937,122.440697 803.178284,118.612396 
	C795.750854,117.225800 787.900269,117.483109 780.283875,117.847794 
	C757.217590,118.952248 739.402527,137.361557 739.127441,160.461334 
	C738.855713,183.284409 738.604309,206.126160 739.226501,228.935654 
	C739.730164,247.397125 748.911255,261.251770 766.231995,267.898529 
	C781.739319,273.849396 797.827637,273.373871 814.155518,266.730713 
M1464.779785,101.499405 
	C1464.779785,157.107071 1464.779785,212.714737 1464.779785,268.299927 
	C1470.941040,268.299927 1476.534302,268.299927 1482.267578,268.299927 
	C1482.267578,199.124359 1482.267578,130.238312 1482.267578,61.336227 
	C1476.328735,61.336227 1470.726807,61.336227 1464.779907,61.336227 
	C1464.779907,74.540306 1464.779907,87.519836 1464.779785,101.499405 
M563.135132,181.500046 
	C563.135132,141.433197 563.135132,101.366348 563.135132,61.434494 
	C556.794922,61.434494 551.217529,61.434494 545.498230,61.434494 
	C545.498230,130.505280 545.498230,199.253052 545.498230,268.266388 
	C551.437866,268.266388 557.152527,268.266388 563.135132,268.266388 
	C563.135132,239.466324 563.135132,210.983185 563.135132,181.500046 
M894.307495,136.500153 
	C894.307495,111.542450 894.307495,86.584747 894.307495,61.376724 
	C888.325195,61.376724 882.749695,61.376724 876.983643,61.376724 
	C876.983643,130.435791 876.983643,199.301163 876.983643,268.233521 
	C882.855225,268.233521 888.419312,268.233521 894.307556,268.233521 
	C894.307556,224.435257 894.307556,180.967712 894.307495,136.500153 
M938.907593,171.415146 
	C952.885742,154.656876 966.863953,137.898605 981.443298,120.419601 
	C974.068848,120.419601 967.917847,120.190643 961.801575,120.551247 
	C959.821289,120.667999 957.414368,121.872826 956.092651,123.367157 
	C950.912354,129.223907 946.078186,135.387466 941.132568,141.451035 
	C926.733093,159.105530 912.341919,176.766785 897.874878,194.514313 
	C917.604248,218.686249 937.177917,242.675659 956.778503,266.643127 
	C957.380615,267.379425 958.251831,268.406891 959.014221,268.421356 
	C966.182251,268.557404 973.353943,268.502136 981.418701,268.502136 
	C960.339172,243.272644 939.992798,218.920670 919.583130,194.492950 
	C926.057373,186.751572 932.247986,179.349274 938.907593,171.415146 
M1529.946289,219.499985 
	C1529.946289,235.749802 1529.946289,251.999603 1529.946289,268.309509 
	C1536.145386,268.309509 1541.735229,268.309509 1547.542480,268.309509 
	C1547.542480,219.004623 1547.542480,169.973938 1547.542480,120.756210 
	C1541.581543,120.756210 1535.872559,120.756210 1529.946289,120.756210 
	C1529.946289,153.563705 1529.946289,186.031830 1529.946289,219.499985 
M1528.474609,83.005257 
	C1528.885254,83.623611 1529.286377,84.773216 1529.708008,84.780724 
	C1536.132812,84.895187 1542.560303,84.860321 1548.847168,84.860321 
	C1548.847168,76.660667 1548.847168,69.059494 1548.847168,61.389732 
	C1542.005615,61.389732 1535.444702,61.389732 1528.461914,61.389732 
	C1528.461914,68.474411 1528.461914,75.279030 1528.474609,83.005257 
z"/>
<path fill="#FCFCFC" opacity="1.000000" stroke="none" 
	d="
M52.974281,201.951202 
	C51.609222,145.780029 70.907715,98.498291 111.406799,60.303562 
	C139.824081,33.503185 173.794983,17.857147 212.598999,12.782315 
	C301.062317,1.212984 385.288727,55.396141 411.331329,140.681778 
	C442.725006,243.491333 379.274048,351.689056 274.598999,373.840393 
	C178.169235,394.246796 82.974754,335.396729 58.605057,239.875793 
	C55.501766,227.711960 54.798180,214.935898 52.974281,201.951202 
M391.143585,158.425858 
	C391.092102,158.096497 391.059937,157.762741 390.986298,157.438400 
	C371.451721,71.404930 280.744232,17.175888 195.381638,40.494755 
	C110.074883,63.798374 60.130669,149.225266 81.940407,234.529846 
	C102.471527,314.833374 181.853470,365.635681 264.203339,351.173157 
	C353.377258,335.512238 412.136383,246.810791 391.143585,158.425858 
z"/>
<path fill="#FBFBFB" opacity="1.000000" stroke="none" 
	d="
M1405.472656,174.979462 
	C1405.449707,169.484924 1405.619995,164.476715 1405.366821,159.490021 
	C1404.662720,145.616959 1395.359375,135.746948 1381.597412,134.452682 
	C1376.974487,134.017929 1372.246460,134.030197 1367.619385,134.437378 
	C1353.687134,135.663452 1344.204102,145.882538 1343.711914,159.836578 
	C1343.654297,161.470642 1343.703979,163.108475 1343.703979,165.307709 
	C1337.658203,164.381897 1332.126587,163.534805 1325.168335,162.469254 
	C1326.345215,156.809921 1326.757568,150.977982 1328.786499,145.776627 
	C1335.451904,128.689041 1348.297852,119.239616 1366.598633,117.854645 
	C1376.373047,117.114937 1386.281616,116.660385 1395.648682,120.669937 
	C1412.726440,127.979927 1422.660889,140.917953 1422.949951,159.478577 
	C1423.512573,195.614838 1423.114868,231.766068 1423.114868,268.492584 
	C1412.583130,269.214325 1413.279419,258.131897 1407.115356,254.400620 
	C1400.443604,262.230316 1392.124023,268.498993 1381.366943,270.471863 
	C1350.834473,276.071564 1330.832153,259.521393 1325.515747,237.864243 
	C1318.627197,209.802185 1339.001831,183.352280 1367.858887,182.996674 
	C1380.168213,182.844986 1392.480957,182.971313 1405.472534,182.971313 
	C1405.472534,180.310471 1405.472534,177.893036 1405.472656,174.979462 
M1405.476685,221.492355 
	C1405.476685,213.404282 1405.476685,205.316208 1405.476685,196.911942 
	C1392.330566,196.911942 1379.709717,196.803833 1367.091553,196.947968 
	C1357.881348,197.053177 1350.887329,201.419327 1346.049316,209.123337 
	C1341.034058,217.109894 1341.185791,225.929031 1342.922974,234.703506 
	C1344.931885,244.850967 1353.050781,252.801941 1363.270020,253.999512 
	C1370.138672,254.804459 1377.249756,254.813782 1384.120483,254.027588 
	C1394.377930,252.853867 1402.655640,244.894577 1404.702148,234.909836 
	C1405.527100,230.885254 1405.251465,226.635086 1405.476685,221.492355 
z"/>
<path fill="#FAFAFA" opacity="1.000000" stroke="none" 
	d="
M703.617554,238.000214 
	C703.617554,248.298477 703.617554,258.096741 703.617554,268.435608 
	C692.794006,269.335632 693.760864,257.972717 687.280396,254.245438 
	C686.660278,254.957596 685.735779,256.010895 684.820312,257.072021 
	C665.685608,279.251190 622.042603,276.622467 608.823364,246.035995 
	C606.386658,240.398041 604.974976,233.866867 604.909790,227.728653 
	C604.539978,192.909836 604.722046,158.085129 604.727173,123.262421 
	C604.727295,122.461212 604.855286,121.660027 604.940369,120.662933 
	C610.749329,120.662933 616.316467,120.662933 622.377625,120.662933 
	C622.377625,122.688805 622.377625,124.479050 622.377625,126.269295 
	C622.377625,159.259277 622.370789,192.249252 622.380249,225.239227 
	C622.385742,244.513138 632.660217,254.726578 652.017639,254.736267 
	C654.017029,254.737274 656.016479,254.746368 658.015808,254.733673 
	C674.976562,254.625961 685.818787,243.864822 685.841980,226.943008 
	C685.887817,193.453247 685.855530,159.963379 685.855591,126.473557 
	C685.855591,124.653450 685.855591,122.833344 685.855591,120.717621 
	C691.717773,120.717621 697.301758,120.717621 703.617615,120.717621 
	C703.617615,159.680313 703.617615,198.590256 703.617554,238.000214 
z"/>
<path fill="#FAFAFA" opacity="1.000000" stroke="none" 
	d="
M1064.045410,231.135529 
	C1052.948608,261.960785 1041.851685,292.372955 1031.061401,322.893524 
	C1029.628296,326.946869 1027.739868,328.350983 1023.630920,327.957825 
	C1020.002930,327.610657 1016.315430,327.885132 1012.095703,327.885132 
	C1012.694397,326.105255 1013.161560,324.611511 1013.696350,323.142395 
	C1021.305786,302.238190 1029.038452,281.377380 1036.404907,260.387970 
	C1037.390747,257.578827 1037.389038,253.825974 1036.406250,251.012527 
	C1021.679993,208.852371 1006.710510,166.777130 991.807251,124.678726 
	C991.381226,123.475220 991.053284,122.236984 990.498596,120.422562 
	C995.943298,120.422562 1000.911194,120.157402 1005.814697,120.602608 
	C1007.095276,120.718880 1008.729309,122.852325 1009.264771,124.386169 
	C1018.293213,150.249573 1027.166138,176.167267 1036.090088,202.067169 
	C1039.640137,212.370590 1043.230835,222.659973 1047.233887,234.197296 
	C1053.453125,216.069214 1059.232544,199.210556 1065.020874,182.354950 
	C1071.653442,163.040741 1078.385742,143.759842 1084.837524,124.385498 
	C1085.868652,121.289017 1087.194458,120.162117 1090.390991,120.356247 
	C1094.685059,120.617012 1099.007080,120.420868 1104.080566,120.420868 
	C1090.648926,157.526459 1077.395020,194.141388 1064.045410,231.135529 
z"/>
<path fill="#FBFBFB" opacity="1.000000" stroke="none" 
	d="
M1232.543701,271.337463 
	C1207.345459,269.834961 1190.081177,251.775375 1189.967773,227.043472 
	C1189.868530,205.381943 1189.873535,183.719269 1189.966309,162.057678 
	C1190.073242,137.074478 1207.425415,118.748436 1232.489502,117.818039 
	C1241.044556,117.500465 1250.047729,117.569298 1258.179932,119.843658 
	C1278.709961,125.585297 1290.628174,144.893021 1288.570801,167.046921 
	C1282.920410,167.982147 1277.194092,168.929947 1270.987061,169.957306 
	C1270.987061,166.638947 1271.028809,163.503677 1270.979736,160.369843 
	C1270.765381,146.652740 1261.651489,136.080322 1248.010986,134.640244 
	C1241.776367,133.982040 1235.313843,134.094803 1229.098999,134.930527 
	C1216.939453,136.565643 1208.013184,146.714508 1207.891113,158.991135 
	C1207.656128,182.649872 1207.655884,206.314209 1207.889771,229.972977 
	C1208.011230,242.258163 1216.938843,252.481369 1229.070190,254.043442 
	C1235.608154,254.885269 1242.416382,254.938095 1248.959351,254.152649 
	C1261.833008,252.607239 1270.675537,242.129761 1270.968018,229.154068 
	C1271.042480,225.845627 1270.979126,222.534073 1270.979126,219.060883 
	C1277.176514,220.078384 1282.906616,221.019150 1288.563843,221.947952 
	C1291.123901,248.695190 1272.990479,269.870300 1246.486572,271.283600 
	C1242.001465,271.522797 1237.494263,271.351532 1232.543701,271.337463 
z"/>
<path fill="#FCFCFC" opacity="1.000000" stroke="none" 
	d="
M813.806519,266.871765 
	C797.827637,273.373871 781.739319,273.849396 766.231995,267.898529 
	C748.911255,261.251770 739.730164,247.397125 739.226501,228.935654 
	C738.604309,206.126160 738.855713,183.284409 739.127441,160.461334 
	C739.402527,137.361557 757.217590,118.952248 780.283875,117.847794 
	C787.900269,117.483109 795.750854,117.225800 803.178284,118.612396 
	C823.684937,122.440697 840.035339,141.121597 837.805969,167.000076 
	C832.182312,167.944046 826.393066,168.915787 820.132751,169.966614 
	C820.132751,166.457901 820.183838,163.314545 820.123962,160.173309 
	C819.864868,146.591080 810.997314,136.199005 797.532410,134.704422 
	C791.142822,133.995193 784.505615,134.104416 778.132263,134.965729 
	C766.080872,136.594421 757.129028,147.021942 757.038330,159.170410 
	C756.862915,182.661972 756.869568,206.156509 757.029724,229.648270 
	C757.114197,242.045990 766.103027,252.494141 778.454590,254.067719 
	C784.991089,254.900482 791.799133,254.919357 798.339905,254.120911 
	C811.030579,252.571732 819.763184,242.258591 820.102966,229.494110 
	C820.191101,226.182907 820.116211,222.867355 820.116211,219.111221 
	C826.220703,220.080307 831.902039,220.982208 837.518616,221.873825 
	C840.188782,240.302887 831.329102,257.205688 813.806519,266.871765 
z"/>
<path fill="#F8F8F8" opacity="1.000000" stroke="none" 
	d="
M1464.779785,100.999390 
	C1464.779907,87.519836 1464.779907,74.540306 1464.779907,61.336227 
	C1470.726807,61.336227 1476.328735,61.336227 1482.267578,61.336227 
	C1482.267578,130.238312 1482.267578,199.124359 1482.267578,268.299927 
	C1476.534302,268.299927 1470.941040,268.299927 1464.779785,268.299927 
	C1464.779785,212.714737 1464.779785,157.107071 1464.779785,100.999390 
z"/>
<path fill="#F9F9F9" opacity="1.000000" stroke="none" 
	d="
M563.135132,182.000061 
	C563.135132,210.983185 563.135132,239.466324 563.135132,268.266388 
	C557.152527,268.266388 551.437866,268.266388 545.498230,268.266388 
	C545.498230,199.253052 545.498230,130.505280 545.498230,61.434494 
	C551.217529,61.434494 556.794922,61.434494 563.135132,61.434494 
	C563.135132,101.366348 563.135132,141.433197 563.135132,182.000061 
z"/>
<path fill="#FEFEFE" opacity="1.000000" stroke="none" 
	d="
M894.307495,137.000153 
	C894.307556,180.967712 894.307556,224.435257 894.307556,268.233521 
	C888.419312,268.233521 882.855225,268.233521 876.983643,268.233521 
	C876.983643,199.301163 876.983643,130.435791 876.983643,61.376724 
	C882.749695,61.376724 888.325195,61.376724 894.307495,61.376724 
	C894.307495,86.584747 894.307495,111.542450 894.307495,137.000153 
z"/>
<path fill="#FAFAFA" opacity="1.000000" stroke="none" 
	d="
M938.673096,171.681061 
	C932.247986,179.349274 926.057373,186.751572 919.583130,194.492950 
	C939.992798,218.920670 960.339172,243.272644 981.418701,268.502136 
	C973.353943,268.502136 966.182251,268.557404 959.014221,268.421356 
	C958.251831,268.406891 957.380615,267.379425 956.778503,266.643127 
	C937.177917,242.675659 917.604248,218.686249 897.874878,194.514313 
	C912.341919,176.766785 926.733093,159.105530 941.132568,141.451035 
	C946.078186,135.387466 950.912354,129.223907 956.092651,123.367157 
	C957.414368,121.872826 959.821289,120.667999 961.801575,120.551247 
	C967.917847,120.190643 974.068848,120.419601 981.443298,120.419601 
	C966.863953,137.898605 952.885742,154.656876 938.673096,171.681061 
z"/>
<path fill="#F9F9F9" opacity="1.000000" stroke="none" 
	d="
M1529.946289,218.999969 
	C1529.946289,186.031830 1529.946289,153.563705 1529.946289,120.756210 
	C1535.872559,120.756210 1541.581543,120.756210 1547.542480,120.756210 
	C1547.542480,169.973938 1547.542480,219.004623 1547.542480,268.309509 
	C1541.735229,268.309509 1536.145386,268.309509 1529.946289,268.309509 
	C1529.946289,251.999603 1529.946289,235.749802 1529.946289,218.999969 
z"/>
<path fill="#F6F6F6" opacity="1.000000" stroke="none" 
	d="
M1528.468262,82.544456 
	C1528.461914,75.279030 1528.461914,68.474411 1528.461914,61.389732 
	C1535.444702,61.389732 1542.005615,61.389732 1548.847168,61.389732 
	C1548.847168,69.059494 1548.847168,76.660667 1548.847168,84.860321 
	C1542.560303,84.860321 1536.132812,84.895187 1529.708008,84.780724 
	C1529.286377,84.773216 1528.885254,83.623611 1528.468262,82.544456 
z"/>
<path fill="#010101" opacity="1.000000" stroke="none" 
	d="
M391.245605,158.832428 
	C412.136383,246.810791 353.377258,335.512238 264.203339,351.173157 
	C181.853470,365.635681 102.471527,314.833374 81.940407,234.529846 
	C60.130669,149.225266 110.074883,63.798374 195.381638,40.494755 
	C280.744232,17.175888 371.451721,71.404930 390.986298,157.438400 
	C391.059937,157.762741 391.092102,158.096497 391.245605,158.832428 
M207.026596,160.685532 
	C207.562927,170.087082 208.099258,179.488632 208.651352,189.166443 
	C196.953369,180.304962 195.768082,167.444290 195.439896,153.940903 
	C193.456009,155.785919 191.925446,157.654556 190.679749,159.696945 
	C184.889053,169.191299 181.608154,179.553696 179.740646,190.490814 
	C177.434723,203.995575 180.820435,215.987991 189.107895,226.541092 
	C193.617523,232.283585 198.726791,237.607437 203.951996,242.725632 
	C217.917435,256.404999 229.639008,271.147614 229.061676,292.240082 
	C230.059021,292.107269 230.589066,292.158844 231.003220,291.964050 
	C258.377167,279.088593 279.093536,259.631317 288.698792,230.434448 
	C298.427551,200.862152 293.608124,174.258575 269.644165,152.572021 
	C264.463074,147.883301 259.415466,142.984192 254.797867,137.748505 
	C244.677460,126.273415 243.766632,116.424629 250.997559,102.970047 
	C251.807495,101.462982 252.518906,99.902962 253.275986,98.367493 
	C227.723923,111.418098 209.124496,129.457092 207.026596,160.685532 
z"/>
<path fill="#020202" opacity="1.000000" stroke="none" 
	d="
M1405.476685,221.989960 
	C1405.251465,226.635086 1405.527100,230.885254 1404.702148,234.909836 
	C1402.655640,244.894577 1394.377930,252.853867 1384.120483,254.027588 
	C1377.249756,254.813782 1370.138672,254.804459 1363.270020,253.999512 
	C1353.050781,252.801941 1344.931885,244.850967 1342.922974,234.703506 
	C1341.185791,225.929031 1341.034058,217.109894 1346.049316,209.123337 
	C1350.887329,201.419327 1357.881348,197.053177 1367.091553,196.947968 
	C1379.709717,196.803833 1392.330566,196.911942 1405.476685,196.911942 
	C1405.476685,205.316208 1405.476685,213.404282 1405.476685,221.989960 
z"/>
<path fill="#FEFEFE" opacity="1.000000" stroke="none" 
	d="
M207.045807,160.213257 
	C209.124496,129.457092 227.723923,111.418098 253.275986,98.367493 
	C252.518906,99.902962 251.807495,101.462982 250.997559,102.970047 
	C243.766632,116.424629 244.677460,126.273415 254.797867,137.748505 
	C259.415466,142.984192 264.463074,147.883301 269.644165,152.572021 
	C293.608124,174.258575 298.427551,200.862152 288.698792,230.434448 
	C279.093536,259.631317 258.377167,279.088593 231.003220,291.964050 
	C230.589066,292.158844 230.059021,292.107269 229.061676,292.240082 
	C229.639008,271.147614 217.917435,256.404999 203.951996,242.725632 
	C198.726791,237.607437 193.617523,232.283585 189.107895,226.541092 
	C180.820435,215.987991 177.434723,203.995575 179.740646,190.490814 
	C181.608154,179.553696 184.889053,169.191299 190.679749,159.696945 
	C191.925446,157.654556 193.456009,155.785919 195.439896,153.940903 
	C195.768082,167.444290 196.953369,180.304962 208.651352,189.166443 
	C208.099258,179.488632 207.562927,170.087082 207.045807,160.213257 
z"/>
</svg>